<svg width="295" height="319" viewBox="0 0 295 319" fill="none" xmlns="http://www.w3.org/2000/svg">
<path d="M28.6382 289.566C28.5151 290.618 28.1255 291.432 27.4692 292.006C26.8175 292.576 25.9494 292.86 24.8647 292.86C23.689 292.86 22.7456 292.439 22.0347 291.596C21.3283 290.753 20.9751 289.625 20.9751 288.212V287.255C20.9751 286.33 21.1392 285.516 21.4673 284.815C21.8 284.113 22.2694 283.575 22.8755 283.201C23.4816 282.823 24.1834 282.634 24.981 282.634C26.0382 282.634 26.8859 282.93 27.5239 283.523C28.1619 284.11 28.5334 284.926 28.6382 285.97H27.3188C27.2049 285.177 26.9565 284.603 26.5737 284.247C26.1955 283.892 25.6646 283.714 24.981 283.714C24.1424 283.714 23.4839 284.024 23.0054 284.644C22.5314 285.263 22.2944 286.145 22.2944 287.289V288.253C22.2944 289.333 22.52 290.192 22.9712 290.83C23.4224 291.468 24.0535 291.787 24.8647 291.787C25.5939 291.787 26.1522 291.623 26.5396 291.295C26.9315 290.962 27.1912 290.386 27.3188 289.566H28.6382ZM43.1829 282.771V289.538C43.1783 290.477 42.8821 291.245 42.2942 291.842C41.7109 292.439 40.9179 292.774 39.9153 292.847L39.5667 292.86C38.4775 292.86 37.6093 292.566 36.9622 291.979C36.315 291.391 35.9869 290.582 35.9778 289.552V282.771H37.2766V289.511C37.2766 290.231 37.4749 290.791 37.8713 291.192C38.2678 291.589 38.8329 291.787 39.5667 291.787C40.3095 291.787 40.8769 291.589 41.2688 291.192C41.6653 290.796 41.8635 290.238 41.8635 289.518V282.771H43.1829ZM54.6446 288.697H52.3067V292.724H50.9873V282.771H54.2822C55.4033 282.771 56.2647 283.026 56.8662 283.536C57.4723 284.047 57.7754 284.789 57.7754 285.765C57.7754 286.385 57.6068 286.925 57.2696 287.385C56.9369 287.845 56.472 288.189 55.875 288.417L58.2129 292.642V292.724H56.8047L54.6446 288.697ZM52.3067 287.624H54.3233C54.975 287.624 55.4922 287.455 55.875 287.118C56.2624 286.781 56.4561 286.33 56.4561 285.765C56.4561 285.15 56.2715 284.678 55.9024 284.35C55.5378 284.022 55.0091 283.855 54.3164 283.851H52.3067V287.624ZM69.0115 288.697H66.6736V292.724H65.3543V282.771H68.6492C69.7703 282.771 70.6316 283.026 71.2332 283.536C71.8393 284.047 72.1424 284.789 72.1424 285.765C72.1424 286.385 71.9737 286.925 71.6365 287.385C71.3038 287.845 70.839 288.189 70.242 288.417L72.5799 292.642V292.724H71.1717L69.0115 288.697ZM66.6736 287.624H68.6902C69.3419 287.624 69.8592 287.455 70.242 287.118C70.6293 286.781 70.823 286.33 70.823 285.765C70.823 285.15 70.6385 284.678 70.2693 284.35C69.9047 284.022 69.3761 283.855 68.6834 283.851H66.6736V287.624ZM85.354 288.123H81.0406V291.65H86.0513V292.724H79.7281V282.771H85.9829V283.851H81.0406V287.05H85.354V288.123ZM101.075 292.724H99.7552L94.7444 285.054V292.724H93.4251V282.771H94.7444L99.7688 290.475V282.771H101.075V292.724ZM116.467 289.566C116.344 290.618 115.954 291.432 115.298 292.006C114.646 292.576 113.778 292.86 112.693 292.86C111.518 292.86 110.574 292.439 109.863 291.596C109.157 290.753 108.804 289.625 108.804 288.212V287.255C108.804 286.33 108.968 285.516 109.296 284.815C109.629 284.113 110.098 283.575 110.704 283.201C111.31 282.823 112.012 282.634 112.81 282.634C113.867 282.634 114.715 282.93 115.353 283.523C115.991 284.11 116.362 284.926 116.467 285.97H115.148C115.034 285.177 114.785 284.603 114.402 284.247C114.024 283.892 113.493 283.714 112.81 283.714C111.971 283.714 111.313 284.024 110.834 284.644C110.36 285.263 110.123 286.145 110.123 287.289V288.253C110.123 289.333 110.349 290.192 110.8 290.83C111.251 291.468 111.882 291.787 112.693 291.787C113.423 291.787 113.981 291.623 114.368 291.295C114.76 290.962 115.02 290.386 115.148 289.566H116.467ZM127.04 287.768L129.638 282.771H131.128L127.696 289.012V292.724H126.384V289.012L122.952 282.771H124.456L127.04 287.768ZM154.687 289.566C154.564 290.618 154.174 291.432 153.518 292.006C152.866 292.576 151.998 292.86 150.913 292.86C149.738 292.86 148.794 292.439 148.083 291.596C147.377 290.753 147.024 289.625 147.024 288.212V287.255C147.024 286.33 147.188 285.516 147.516 284.815C147.849 284.113 148.318 283.575 148.924 283.201C149.53 282.823 150.232 282.634 151.03 282.634C152.087 282.634 152.935 282.93 153.573 283.523C154.211 284.11 154.582 284.926 154.687 285.97H153.368C153.254 285.177 153.005 284.603 152.622 284.247C152.244 283.892 151.713 283.714 151.03 283.714C150.191 283.714 149.533 284.024 149.054 284.644C148.58 285.263 148.343 286.145 148.343 287.289V288.253C148.343 289.333 148.569 290.192 149.02 290.83C149.471 291.468 150.102 291.787 150.913 291.787C151.643 291.787 152.201 291.623 152.588 291.295C152.98 290.962 153.24 290.386 153.368 289.566H154.687ZM169.881 288.068C169.881 289.044 169.717 289.896 169.389 290.625C169.061 291.35 168.596 291.903 167.994 292.286C167.393 292.669 166.691 292.86 165.889 292.86C165.105 292.86 164.41 292.669 163.804 292.286C163.198 291.899 162.726 291.35 162.389 290.639C162.056 289.923 161.885 289.096 161.876 288.157V287.44C161.876 286.483 162.042 285.637 162.375 284.903C162.708 284.17 163.177 283.609 163.783 283.222C164.394 282.83 165.091 282.634 165.875 282.634C166.673 282.634 167.374 282.828 167.981 283.215C168.591 283.598 169.061 284.156 169.389 284.89C169.717 285.619 169.881 286.469 169.881 287.44V288.068ZM168.575 287.426C168.575 286.246 168.338 285.341 167.864 284.712C167.39 284.079 166.727 283.762 165.875 283.762C165.046 283.762 164.392 284.079 163.913 284.712C163.439 285.341 163.195 286.216 163.182 287.337V288.068C163.182 289.212 163.421 290.112 163.9 290.769C164.383 291.42 165.046 291.746 165.889 291.746C166.736 291.746 167.393 291.439 167.858 290.823C168.322 290.204 168.562 289.317 168.575 288.164V287.426ZM185.239 292.724H183.92L178.909 285.054V292.724H177.59V282.771H178.909L183.933 290.475V282.771H185.239V292.724ZM196.605 290.981L199.449 282.771H200.884L197.193 292.724H196.031L192.346 282.771H193.775L196.605 290.981ZM213.59 288.123H209.277V291.65H214.287V292.724H207.964V282.771H214.219V283.851H209.277V287.05H213.59V288.123ZM225.312 288.697H222.974V292.724H221.654V282.771H224.949C226.07 282.771 226.932 283.026 227.533 283.536C228.139 284.047 228.443 284.789 228.443 285.765C228.443 286.385 228.274 286.925 227.937 287.385C227.604 287.845 227.139 288.189 226.542 288.417L228.88 292.642V292.724H227.472L225.312 288.697ZM222.974 287.624H224.99C225.642 287.624 226.159 287.455 226.542 287.118C226.929 286.781 227.123 286.33 227.123 285.765C227.123 285.15 226.939 284.678 226.569 284.35C226.205 284.022 225.676 283.855 224.984 283.851H222.974V287.624ZM242.358 283.851H239.159V292.724H237.853V283.851H234.661V282.771H242.358V283.851ZM255.201 288.123H250.887V291.65H255.898V292.724H249.575V282.771H255.83V283.851H250.887V287.05H255.201V288.123ZM266.922 288.697H264.584V292.724H263.265V282.771H266.56C267.681 282.771 268.542 283.026 269.144 283.536C269.75 284.047 270.053 284.789 270.053 285.765C270.053 286.385 269.885 286.925 269.547 287.385C269.215 287.845 268.75 288.189 268.153 288.417L270.491 292.642V292.724H269.082L266.922 288.697ZM264.584 287.624H266.601C267.253 287.624 267.77 287.455 268.153 287.118C268.54 286.781 268.734 286.33 268.734 285.765C268.734 285.15 268.549 284.678 268.18 284.35C267.816 284.022 267.287 283.855 266.594 283.851H264.584V287.624Z" fill="white"/>
<path d="M74.8125 120.516C82.6875 120.516 89.8125 122.25 96.1875 125.719C102.656 129.094 107.859 133.688 111.797 139.5L140.203 110.672L116.859 186.75C116.016 178.875 114.703 172.219 112.922 166.781C111.141 161.25 109.078 156.703 106.734 153.141C104.484 149.484 102.094 146.672 99.5625 144.703C97.125 142.734 94.8281 141.281 92.6719 140.344C90.6094 139.406 88.7812 138.844 87.1875 138.656C85.6875 138.469 84.75 138.375 84.375 138.375C77.625 138.375 71.5312 139.688 66.0938 142.312C60.6562 144.938 55.9688 148.781 52.0312 153.844C48.1875 158.906 45.2344 165.141 43.1719 172.547C41.1094 179.859 40.0781 188.203 40.0781 197.578C40.0781 206.578 41.1562 214.547 43.3125 221.484C45.4688 228.328 48.3281 234.094 51.8906 238.781C55.4531 243.469 59.5312 247.031 64.125 249.469C68.7188 251.812 73.4531 252.984 78.3281 252.984C84.0469 252.984 89.3438 251.719 94.2188 249.188C99.0938 246.562 103.266 243.141 106.734 238.922C110.203 234.703 112.781 229.875 114.469 224.438C116.25 218.906 116.859 213.234 116.297 207.422C117.422 208.453 118.594 209.719 119.812 211.219C121.125 212.719 122.297 214.406 123.328 216.281C124.453 218.062 125.344 220.031 126 222.188C126.656 224.25 126.984 226.359 126.984 228.516C126.984 234.891 125.438 240.656 122.344 245.812C119.344 250.875 115.453 255.188 110.672 258.75C105.891 262.312 100.5 265.031 94.5 266.906C88.5 268.875 82.5469 269.859 76.6406 269.859C74.1094 269.859 70.6406 269.578 66.2344 269.016C61.9219 268.453 57.1875 267.281 52.0312 265.5C46.9688 263.812 41.8125 261.328 36.5625 258.047C31.3125 254.766 26.5312 250.406 22.2188 244.969C18 239.531 14.5312 232.828 11.8125 224.859C9.09375 216.891 7.73438 207.328 7.73438 196.172C7.73438 186.234 8.85938 177.469 11.1094 169.875C13.4531 162.188 16.5 155.531 20.25 149.906C24.0938 144.281 28.4062 139.594 33.1875 135.844C37.9688 132.094 42.8438 129.094 47.8125 126.844C52.7812 124.594 57.6094 123 62.2969 122.062C67.0781 121.031 71.25 120.516 74.8125 120.516ZM212.906 120.516C220.781 120.516 227.906 122.25 234.281 125.719C240.75 129.094 245.953 133.688 249.891 139.5L278.297 110.672L254.953 186.75C254.109 178.875 252.797 172.219 251.016 166.781C249.234 161.25 247.172 156.703 244.828 153.141C242.578 149.484 240.188 146.672 237.656 144.703C235.219 142.734 232.922 141.281 230.766 140.344C228.703 139.406 226.875 138.844 225.281 138.656C223.781 138.469 222.844 138.375 222.469 138.375C215.719 138.375 209.625 139.688 204.188 142.312C198.75 144.938 194.062 148.781 190.125 153.844C186.281 158.906 183.328 165.141 181.266 172.547C179.203 179.859 178.172 188.203 178.172 197.578C178.172 206.578 179.25 214.547 181.406 221.484C183.562 228.328 186.422 234.094 189.984 238.781C193.547 243.469 197.625 247.031 202.219 249.469C206.812 251.812 211.547 252.984 216.422 252.984C222.141 252.984 227.438 251.719 232.312 249.188C237.188 246.562 241.359 243.141 244.828 238.922C248.297 234.703 250.875 229.875 252.562 224.438C254.344 218.906 254.953 213.234 254.391 207.422C255.516 208.453 256.688 209.719 257.906 211.219C259.219 212.719 260.391 214.406 261.422 216.281C262.547 218.062 263.438 220.031 264.094 222.188C264.75 224.25 265.078 226.359 265.078 228.516C265.078 234.891 263.531 240.656 260.438 245.812C257.438 250.875 253.547 255.188 248.766 258.75C243.984 262.312 238.594 265.031 232.594 266.906C226.594 268.875 220.641 269.859 214.734 269.859C212.203 269.859 208.734 269.578 204.328 269.016C200.016 268.453 195.281 267.281 190.125 265.5C185.062 263.812 179.906 261.328 174.656 258.047C169.406 254.766 164.625 250.406 160.312 244.969C156.094 239.531 152.625 232.828 149.906 224.859C147.188 216.891 145.828 207.328 145.828 196.172C145.828 186.234 146.953 177.469 149.203 169.875C151.547 162.188 154.594 155.531 158.344 149.906C162.188 144.281 166.5 139.594 171.281 135.844C176.062 132.094 180.938 129.094 185.906 126.844C190.875 124.594 195.703 123 200.391 122.062C205.172 121.031 209.344 120.516 212.906 120.516Z" fill="white"/>
</svg>
